<svg id="visual" viewBox="0 0 960 540" width="960" height="540" xmlns="http://www.w3.org/2000/svg" xmlns:xlink="http://www.w3.org/1999/xlink" version="1.1"><path d="M0 87L14.5 83.5C29 80 58 73 87.2 68.5C116.3 64 145.7 62 174.8 66.5C204 71 233 82 262 81.2C291 80.3 320 67.7 349 61.3C378 55 407 55 436.2 60.3C465.3 65.7 494.7 76.3 523.8 82.7C553 89 582 91 611 85.7C640 80.3 669 67.7 698 65C727 62.3 756 69.7 785.2 71.5C814.3 73.3 843.7 69.7 872.8 71.3C902 73 931 80 945.5 83.5L960 87L960 0L945.5 0C931 0 902 0 872.8 0C843.7 0 814.3 0 785.2 0C756 0 727 0 698 0C669 0 640 0 611 0C582 0 553 0 523.8 0C494.7 0 465.3 0 436.2 0C407 0 378 0 349 0C320 0 291 0 262 0C233 0 204 0 174.8 0C145.7 0 116.3 0 87.2 0C58 0 29 0 14.5 0L0 0Z" fill="#6198ff"></path><path d="M0 282L14.5 284.7C29 287.3 58 292.7 87.2 282.7C116.3 272.7 145.7 247.3 174.8 232C204 216.7 233 211.3 262 209.7C291 208 320 210 349 216.3C378 222.7 407 233.3 436.2 246.8C465.3 260.3 494.7 276.7 523.8 269.5C553 262.3 582 231.7 611 211.8C640 192 669 183 698 200C727 217 756 260 785.2 260C814.3 260 843.7 217 872.8 200C902 183 931 192 945.5 196.5L960 201L960 85L945.5 81.5C931 78 902 71 872.8 69.3C843.7 67.7 814.3 71.3 785.2 69.5C756 67.7 727 60.3 698 63C669 65.7 640 78.3 611 83.7C582 89 553 87 523.8 80.7C494.7 74.3 465.3 63.7 436.2 58.3C407 53 378 53 349 59.3C320 65.7 291 78.3 262 79.2C233 80 204 69 174.8 64.5C145.7 60 116.3 62 87.2 66.5C58 71 29 78 14.5 81.5L0 85Z" fill="#3c80ff"></path><path d="M0 374L14.5 378.5C29 383 58 392 87.2 393.7C116.3 395.3 145.7 389.7 174.8 386C204 382.3 233 380.7 262 381.7C291 382.7 320 386.3 349 390.8C378 395.3 407 400.7 436.2 400.7C465.3 400.7 494.7 395.3 523.8 385.5C553 375.7 582 361.3 611 363.2C640 365 669 383 698 392.8C727 402.7 756 404.3 785.2 409.7C814.3 415 843.7 424 872.8 414.2C902 404.3 931 375.7 945.5 361.3L960 347L960 199L945.5 194.5C931 190 902 181 872.8 198C843.7 215 814.3 258 785.2 258C756 258 727 215 698 198C669 181 640 190 611 209.8C582 229.7 553 260.3 523.8 267.5C494.7 274.7 465.3 258.3 436.2 244.8C407 231.3 378 220.7 349 214.3C320 208 291 206 262 207.7C233 209.3 204 214.7 174.8 230C145.7 245.3 116.3 270.7 87.2 280.7C58 290.7 29 285.3 14.5 282.7L0 280Z" fill="#0066ff"></path><path d="M0 465L14.5 464.2C29 463.3 58 461.7 87.2 457.2C116.3 452.7 145.7 445.3 174.8 440C204 434.7 233 431.3 262 431.3C291 431.3 320 434.7 349 444.5C378 454.3 407 470.7 436.2 478C465.3 485.3 494.7 483.7 523.8 471C553 458.3 582 434.7 611 434.7C640 434.7 669 458.3 698 471C727 483.7 756 485.3 785.2 482.5C814.3 479.7 843.7 472.3 872.8 464.2C902 456 931 447 945.5 442.5L960 438L960 345L945.5 359.3C931 373.7 902 402.3 872.8 412.2C843.7 422 814.3 413 785.2 407.7C756 402.3 727 400.7 698 390.8C669 381 640 363 611 361.2C582 359.3 553 373.7 523.8 383.5C494.7 393.3 465.3 398.7 436.2 398.7C407 398.7 378 393.3 349 388.8C320 384.3 291 380.7 262 379.7C233 378.7 204 380.3 174.8 384C145.7 387.7 116.3 393.3 87.2 391.7C58 390 29 381 14.5 376.5L0 372Z" fill="#0059dd"></path><path d="M0 541L14.5 541C29 541 58 541 87.2 541C116.3 541 145.7 541 174.8 541C204 541 233 541 262 541C291 541 320 541 349 541C378 541 407 541 436.2 541C465.3 541 494.7 541 523.8 541C553 541 582 541 611 541C640 541 669 541 698 541C727 541 756 541 785.2 541C814.3 541 843.7 541 872.8 541C902 541 931 541 945.5 541L960 541L960 436L945.5 440.5C931 445 902 454 872.8 462.2C843.7 470.3 814.3 477.7 785.2 480.5C756 483.3 727 481.7 698 469C669 456.3 640 432.7 611 432.7C582 432.7 553 456.3 523.8 469C494.7 481.7 465.3 483.3 436.2 476C407 468.7 378 452.3 349 442.5C320 432.7 291 429.3 262 429.3C233 429.3 204 432.7 174.8 438C145.7 443.3 116.3 450.7 87.2 455.2C58 459.7 29 461.3 14.5 462.2L0 463Z" fill="#004cbb"></path></svg>