<svg id="visual" viewBox="0 0 960 540" width="960" height="540" xmlns="http://www.w3.org/2000/svg" xmlns:xlink="http://www.w3.org/1999/xlink" version="1.1"><rect x="0" y="0" width="960" height="540" fill="#001220"></rect><path d="M0 362L22.8 365.5C45.7 369 91.3 376 137 371C182.7 366 228.3 349 274 338.2C319.7 327.3 365.3 322.7 411.2 326.7C457 330.7 503 343.3 548.8 349.3C594.7 355.3 640.3 354.7 686 350.7C731.7 346.7 777.3 339.3 823 344.8C868.7 350.3 914.3 368.7 937.2 377.8L960 387L960 541L937.2 541C914.3 541 868.7 541 823 541C777.3 541 731.7 541 686 541C640.3 541 594.7 541 548.8 541C503 541 457 541 411.2 541C365.3 541 319.7 541 274 541C228.3 541 182.7 541 137 541C91.3 541 45.7 541 22.8 541L0 541Z" fill="#fa7268"></path><path d="M0 357L22.8 358.5C45.7 360 91.3 363 137 368.8C182.7 374.7 228.3 383.3 274 384.5C319.7 385.7 365.3 379.3 411.2 374.8C457 370.3 503 367.7 548.8 368.7C594.7 369.7 640.3 374.3 686 385.5C731.7 396.7 777.3 414.3 823 410.8C868.7 407.3 914.3 382.7 937.2 370.3L960 358L960 541L937.2 541C914.3 541 868.7 541 823 541C777.3 541 731.7 541 686 541C640.3 541 594.7 541 548.8 541C503 541 457 541 411.2 541C365.3 541 319.7 541 274 541C228.3 541 182.7 541 137 541C91.3 541 45.7 541 22.8 541L0 541Z" fill="#ef5f67"></path><path d="M0 433L22.8 434.8C45.7 436.7 91.3 440.3 137 441.3C182.7 442.3 228.3 440.7 274 433.2C319.7 425.7 365.3 412.3 411.2 406C457 399.7 503 400.3 548.8 402C594.7 403.7 640.3 406.3 686 411.5C731.7 416.7 777.3 424.3 823 432.7C868.7 441 914.3 450 937.2 454.5L960 459L960 541L937.2 541C914.3 541 868.7 541 823 541C777.3 541 731.7 541 686 541C640.3 541 594.7 541 548.8 541C503 541 457 541 411.2 541C365.3 541 319.7 541 274 541C228.3 541 182.7 541 137 541C91.3 541 45.7 541 22.8 541L0 541Z" fill="#e34c67"></path><path d="M0 487L22.8 479.3C45.7 471.7 91.3 456.3 137 447.8C182.7 439.3 228.3 437.7 274 443C319.7 448.3 365.3 460.7 411.2 462.7C457 464.7 503 456.3 548.8 453.2C594.7 450 640.3 452 686 451.5C731.7 451 777.3 448 823 449.7C868.7 451.3 914.3 457.7 937.2 460.8L960 464L960 541L937.2 541C914.3 541 868.7 541 823 541C777.3 541 731.7 541 686 541C640.3 541 594.7 541 548.8 541C503 541 457 541 411.2 541C365.3 541 319.7 541 274 541C228.3 541 182.7 541 137 541C91.3 541 45.7 541 22.8 541L0 541Z" fill="#d53867"></path><path d="M0 496L22.8 497.8C45.7 499.7 91.3 503.3 137 501.2C182.7 499 228.3 491 274 487.7C319.7 484.3 365.3 485.7 411.2 487.7C457 489.7 503 492.3 548.8 494.5C594.7 496.7 640.3 498.3 686 495.7C731.7 493 777.3 486 823 488.2C868.7 490.3 914.3 501.7 937.2 507.3L960 513L960 541L937.2 541C914.3 541 868.7 541 823 541C777.3 541 731.7 541 686 541C640.3 541 594.7 541 548.8 541C503 541 457 541 411.2 541C365.3 541 319.7 541 274 541C228.3 541 182.7 541 137 541C91.3 541 45.7 541 22.8 541L0 541Z" fill="#c62368"></path></svg>